<svg xmlns="http://www.w3.org/2000/svg" id="Layer_2" data-name="Layer 2" viewBox="0 0 63.14 155" class="h-4 w-4 sm:h-4 sm:w-4"><defs><style>.bodyw__cls-1{fill:none;stroke:#202020;stroke-linecap:round;stroke-linejoin:round;stroke-width:4}</style></defs><g id="Layer_1-2" data-name="Layer 1"><path d="M31.57 2.5c5.23 0 7.63 4.24 7.63 9.47 0 2.31 5.13 12.36-7.63 12.36M31.57 2.5c-5.23 0-7.63 4.24-7.63 9.47 0 2.31-5.13 12.36 7.63 12.36M60.64 79.73c0 27.25-5.6-30.07-29.07-30.07S2.5 106.98 2.5 79.73s13.01-49.34 29.07-49.34 29.07 22.09 29.07 49.34Z" class="bodyw__cls-1"/><path d="M52.22 140.27c0 45.35-20.65-50.05-20.65-50.05s-20.65 95.4-20.65 50.05 9.24-82.11 20.65-82.11 20.65 36.76 20.65 82.11Z" class="bodyw__cls-1"/></g></svg>