<svg xmlns="http://www.w3.org/2000/svg" viewBox="0 0 67 40" fill="none" class="h-4 w-4 sm:h-6 sm:w-6"><g stroke="#202020" stroke-linecap="round" stroke-linejoin="round" clip-path="url(#a)"><path stroke-width="1.757" d="M25.435 17.064c.23-1.459.36-3.086.36-4.8 0-6.29-1.73-11.382-3.862-11.382M13.548 13.477c.207 5.715 1.844 10.171 3.838 10.171 2.131 0 3.86-5.099 3.86-11.383 0-6.284-1.729-11.386-3.86-11.386-1.994 0-3.635 4.453-3.838 10.167M62.33.879c2.132 0 3.86 5.096 3.86 11.383 0 6.287-1.728 11.38-3.86 11.38M53.942 13.477c.206 5.715 1.843 10.168 3.838 10.168 2.131 0 3.86-5.096 3.86-11.38C61.64 5.98 59.91.882 57.78.882c-1.995 0-3.635 4.453-3.838 10.167M17.386.879h4.547M17.386 23.645h4.547M57.78.879h4.55M57.78 23.645h4.55"/><path stroke-width="1.757" d="M25.795 11.046h30.773c.67 0 1.215.546 1.215 1.216 0 .67-.545 1.215-1.215 1.215H25.795v-2.43ZM11.56 13.477h4.61a1.216 1.216 0 1 0 0-2.43h-4.61a1.216 1.216 0 1 0 0 2.43Z"/><path stroke-width="1.757" d="M11.56 13.477h.118a1.216 1.216 0 1 0 0-2.43h-.118a1.216 1.216 0 0 0 0 2.43ZM66.165 11.046h2.328c.337 0 .64.137.861.358.222.221.358.524.358.86 0 .67-.546 1.216-1.216 1.216h-2.328M55.81 30.7c0 1.27-3.032 2.297-6.776 2.297-3.743 0-6.772-1.028-6.772-2.298"/><path stroke-width="1.757" d="M48.313 26.328c-3.401.121-6.054 1.097-6.054 2.285 0 1.268 3.035 2.298 6.776 2.298 3.74 0 6.775-1.027 6.775-2.298 0-1.188-2.65-2.161-6.05-2.285"/><path stroke-width="1.054" d="M48.868 28.086c-.791.027-1.407.255-1.407.53 0 .295.706.534 1.577.534.87 0 1.576-.24 1.576-.534 0-.275-.615-.503-1.407-.53"/><path stroke-width="1.757" d="M55.81 28.61v2.09M42.262 28.61v2.09M44.7 24.394c0 2.134-5.096 3.862-11.384 3.862-6.287 0-11.38-1.728-11.38-3.862M32.1 16.009c-5.713.206-10.17 1.843-10.17 3.837 0 2.132 5.1 3.86 11.383 3.86 6.285 0 11.384-1.728 11.384-3.86 0-1.994-4.454-3.634-10.168-3.837"/><path stroke-width="1.757" d="M33.035 18.961c-1.328.049-2.365.428-2.365.892 0 .494 1.185.897 2.647.897 1.46 0 2.646-.403 2.646-.898 0-.463-1.034-.845-2.364-.89M44.7 19.846v4.548M21.933 19.846v4.548M21.936 29.138c0 2.131 5.096 3.862 11.38 3.862 3.814 0 7.188-.637 9.252-1.616M44.7 26.843v-2.252M21.933 24.59v4.548"/></g><defs><clipPath id="a"><path fill="#ededed" d="M0 0h70.591v39H0z"/></clipPath></defs></svg>