<svg xmlns="http://www.w3.org/2000/svg" id="Layer_2" data-name="Layer 2" viewBox="0 0 155 140.96" class="h-4 w-4 sm:h-6 sm:w-6"><defs><style>.cables__cls-1{fill:none;stroke:#202020;stroke-linecap:round;stroke-linejoin:round;stroke-width:6}</style></defs><g id="Layer_1-2" data-name="Layer 1"><circle cx="77.5" cy="31.51" r="7.48" class="cables__cls-1"/><path d="M77.5 27.98V2.5M77.5 55.28l-4.45 4.45-3.72 3.73-36.31 36.29-.05.06 8.17 8.17.06-.05 31.85-31.86 4.45-4.44" class="cables__cls-1"/><path d="m42.94 109.671-28.78 28.78L2.5 126.79l28.78-28.78z" class="cables__cls-1"/><path d="M28.52 100.78a37.17 37.17 0 0 1 6.27 17.05M18.08 111.22a37.17 37.17 0 0 1 6.27 17.05M7.64 121.65a37.22 37.22 0 0 1 6.21 16.49M77.5 38.99v16.29l4.45 4.44 3.73 3.73 36.3 36.3.05.06-8.17 8.17-.06-.05-31.85-31.85-4.45-4.45" class="cables__cls-1"/><path d="m123.722 98.011 28.779 28.78-11.66 11.66-28.78-28.78z" class="cables__cls-1"/><path d="M126.48 100.78a37.17 37.17 0 0 0-6.27 17.05M136.92 111.22a37.17 37.17 0 0 0-6.27 17.05M147.36 121.65a37.22 37.22 0 0 0-6.21 16.49M73.05 76.07V59.73M81.95 76.08V59.72" class="cables__cls-1"/></g></svg>