<svg xmlns="http://www.w3.org/2000/svg" viewBox="0 0 144 151" fill="none" class="h-4 w-4 sm:h-6 sm:w-6"><path fill="#202020" stroke="#202020" stroke-width="3" d="M34.312 60.862h-3.846L30.17 9.395C31.472 4.78 35.84 2.542 37.86 2h75.427c4.023.473 6.606 5.127 7.395 7.395V61.01h-4.289c-.148-16.318-.444-49.338-.444-50.876 0-1.538-2.169-3.303-3.253-3.993H38.748c-1.538-.355-3.598 2.514-4.436 3.993v50.728ZM25.586 138.359H30.17V84.673h4.585v53.686h4.437v4.141H25.586v-4.141ZM111.513 138.359H116.097V84.673h4.585v53.686h4.437v4.141h-13.606v-4.141Z"/><path fill="#202020" d="M0 71.658h12.719v2.662H0zM138.134 71.658h12.719v2.662h-12.719zM37.565 71.658h75.722v2.662H37.565z"/><rect width="7.691" height="21.001" x="28.692" y="62.489" fill="#202020" rx="3.845"/><circle cx="32.537" cy="66.038" r="1.183" fill="#ededed"/><circle cx="32.537" cy="71.954" r="1.183" fill="#ededed"/><circle cx="32.537" cy="79.349" r="1.183" fill="#ededed"/><rect width="7.691" height="21.001" x="114.766" y="62.489" fill="#202020" rx="3.845"/><circle cx="118.612" cy="66.038" r="1.183" fill="#ededed"/><circle cx="118.612" cy="71.954" r="1.183" fill="#ededed"/><circle cx="118.612" cy="79.349" r="1.183" fill="#ededed"/><rect width="4.141" height="34.607" x="123.048" y="55.39" fill="#202020" rx="2.071"/><rect width="4.141" height="34.607" x="126.598" y="55.39" fill="#202020" rx="2.071"/><rect width="4.141" height="34.607" x="130.443" y="55.39" fill="#202020" rx="2.071"/><path fill="#202020" d="M134.584 66.334h2.958v12.423h-2.958z"/><rect width="4.141" height="34.607" x="16.268" y="55.39" fill="#202020" rx="2.071"/><rect width="4.141" height="34.607" x="19.818" y="55.39" fill="#202020" rx="2.071"/><rect width="4.141" height="34.607" x="23.663" y="55.39" fill="#202020" rx="2.071"/><path fill="#202020" d="M13.31 66.926h2.958v12.423H13.31z"/></svg>