<svg xmlns="http://www.w3.org/2000/svg" viewBox="0 0 62 61" fill="none" class="h-4 w-4 sm:h-6 sm:w-6"><path stroke="#202020" stroke-linecap="round" stroke-linejoin="round" stroke-width="2" d="M52.063 33.672c5.176-5.176 3.933-14.812-2.777-21.522-6.71-6.71-16.346-7.954-21.523-2.777-5.177 5.176-3.933 14.812 2.777 21.523 6.71 6.71 16.346 7.953 21.523 2.776Z"/><path stroke="#202020" stroke-linecap="round" stroke-linejoin="round" stroke-width="2" d="M25.858 11.983a10.49 10.49 0 0 0-2.613 1.903c-5.18 5.18-3.93 14.81 2.78 21.522 6.711 6.71 16.341 7.953 21.518 2.776a10.422 10.422 0 0 0 1.904-2.613"/><path stroke="#202020" stroke-linecap="round" stroke-linejoin="round" stroke-width="2" d="M20.337 28.597c-4.296-1.278-8.618-.596-11.448 2.234-4.623 4.623-3.512 13.234 2.486 19.23 5.997 5.998 14.604 7.106 19.227 2.483 2.827-2.826 3.512-7.151 2.238-11.444"/><path stroke="#202020" stroke-linecap="round" stroke-linejoin="round" stroke-width="2" d="M7.188 33.167a9.231 9.231 0 0 0-2.333 1.701C.228 39.495 1.343 48.102 7.341 54.099c5.997 5.998 14.6 7.109 19.227 2.482a9.453 9.453 0 0 0 1.701-2.333M42.75 24.36c1.21-1.21.92-3.46-.648-5.027-1.566-1.567-3.817-1.857-5.026-.647-1.21 1.209-.92 3.46.648 5.026 1.567 1.567 3.817 1.857 5.026.648Z"/><path stroke="#202020" stroke-miterlimit="10" stroke-width="2" d="M23.444 32.3 18.846 36.9a4.02 4.02 0 1 0 5.685 5.685l4.598-4.598"/></svg>